<svg xmlns="http://www.w3.org/2000/svg" viewBox="0 0 599.09 307.94"><defs><style>.cls-1{fill:#fff;}</style></defs><g id="Layer_2" data-name="Layer 2"><g id="Layer_1-2" data-name="Layer 1"><path class="cls-1" d="M0,215.71v-3.27l6.54-2.28q11.1-3.6,11.11-18.63V24.19a30.47,30.47,0,0,0-1.47-10.46c-1-2.62-3.54-4.79-7.68-6.54L0,3.27V0H63.08l60.47,158.19L180.41,0H244.8V3.27l-5.23,2q-6.21,2.29-8.49,6.37t-2.29,10.63V193.16q0,6.54,1.63,10.13t7.84,6.21l6.54,2.94v3.27H163.42v-3.27l6.86-2.94q6.21-2.61,7.85-6.21c1.08-2.39,1.63-5.77,1.63-10.13V119.62l.65-93.47-68.3,189.56H95.76L24.51,28.44l1,81.38v82.36q0,7.2,2.13,11.6T36,210.16l7.19,2.28v3.27Z"/><path class="cls-1" d="M486,220.61a55.06,55.06,0,0,1-23.37-4.9A36,36,0,0,1,446,199.86q-6-11-5.72-28.92l1-84q0-7.51-2.61-10.79t-8.18-4.57l-3.92-1.31V67L485,55.56l3.26,3.27-1.63,46.41V184q0,10.47,6,15.36t15.2,4.91a47.51,47.51,0,0,0,16.34-2.62,58.63,58.63,0,0,0,14.38-7.85l1.31-106.54q0-7.51-2.29-10.63t-8.5-4.41l-3.27-1V68l57.2-12.42,3.27,3.27-1,46.41v88.57q0,7.2,2,11.12t8.49,6.53l3.27,1v3.27L541.9,219,539,199.7a116.76,116.76,0,0,1-23.38,14.87Q503,220.62,486,220.61Z"/><path class="cls-1" d="M416.2,128c-.09-1.5-.23-3-.42-4.51s-.4-3-.68-4.45c-.21-1.1-.45-2.18-.68-3.26a72.75,72.75,0,0,0-8.86-21.64q-10.94-18-31-29.63T333.61,52.4a73.17,73.17,0,0,0-39.37,10.31q-18.5,10.83-31.41,33.18a102.43,102.43,0,0,0-12.17,31s0,0,0,0c-.33,1.67-.61,3.36-.84,5s-.4,3.38-.52,5c-.07.82-.12,1.67-.14,2.49a70.85,70.85,0,0,0,.12,7.73c.09,1.41.21,2.79.37,4.2A69.55,69.55,0,0,0,259,179q9.89,16.85,29.42,28.84c.87.53,1.76,1.05,2.65,1.57l.38.21A60.59,60.59,0,0,1,322.28,262v2a37.9,37.9,0,0,1-5,18,17.67,17.67,0,1,0,33.24,8.35,17.5,17.5,0,0,0-2.53-9.1,34.19,34.19,0,0,1-4.81-17.68v-1.08c0-21.08,11.28-40.25,29.14-51.44.09,0,.19-.11.28-.16q18.11-11.43,30.88-33.5a97.4,97.4,0,0,0,10.76-26.47s0-.05,0-.05q.81-3.54,1.33-7.1c.21-1.57.4-3.17.52-4.74.14-1.78.23-3.58.23-5.36S416.32,129.86,416.2,128Zm-35.05-17.75q-5.62,16-21,42.57Q345,179.17,333.93,192.05t-20.37,15q-9.35,2.14-19.27-3.56c-.42-.24-.82-.47-1.22-.73-5.88-3.73-9.68-8.41-11.35-14.09-1.8-6.07-.79-14.42,3-25.08s10.71-24.76,20.84-42.32q15.38-26.58,26.4-39.48c7.34-8.6,14.09-13.62,20.23-15.12s12.52-.33,19.11,3.49S382.11,79,384,85.08,384.93,99.59,381.15,110.26Z"/></g></g></svg>